<?xml version="1.0" encoding="iso-8859-1"?>
<!-- Generator: Adobe Illustrator 19.0.0, SVG Export Plug-In . SVG Version: 6.00 Build 0)  -->
<svg xmlns="http://www.w3.org/2000/svg" xmlns:xlink="http://www.w3.org/1999/xlink" version="1.1" id="Capa_1" x="0px" y="0px" viewBox="0 0 463 463" style="enable-background:new 0 0 463 463;" xml:space="preserve" width="72px" height="62px">
<path d="M324.189,20c-34.544,0-67.18,12.548-92.689,35.489C205.991,32.548,173.354,20,138.811,20C62.27,20,0,82.27,0,158.811  c0,48.386,26.262,106.054,73.949,162.381c43.866,51.814,100.142,95.958,154.396,121.113c1,0.464,2.078,0.696,3.155,0.696  s2.154-0.232,3.155-0.696c54.254-25.154,110.53-69.298,154.396-121.113C436.738,264.864,463,207.196,463,158.811  C463,82.27,400.73,20,324.189,20z M138.811,35c32.984,0,64.022,12.83,87.395,36.126c2.927,2.917,7.662,2.917,10.589,0  C260.167,47.83,291.205,35,324.189,35C392.459,35,448,90.541,448,158.811c0,16.611-3.439,34.511-10.066,53.189h-94.435  c-3.515,0-6.559,2.441-7.321,5.873l-8.89,39.997l-24.491-104.087c-0.793-3.369-3.788-5.758-7.249-5.782c-0.018,0-0.035,0-0.052,0  c-3.439,0-6.441,2.341-7.276,5.681L273.644,212H183.5c-3.515,0-6.559,2.441-7.321,5.873l-8.888,39.994l-24.49-104.084  c-0.793-3.369-3.788-5.758-7.249-5.782c-0.018,0-0.035,0-0.053,0c-3.439,0-6.44,2.34-7.275,5.681L113.644,212H25.066  C18.439,193.322,15,175.421,15,158.811C15,90.541,70.541,35,138.811,35z M377.603,311.499  c-41.031,48.466-95.413,91.498-146.103,115.712c-50.69-24.214-105.071-67.246-146.103-115.712  C61.273,283.004,42.909,254.338,30.995,227H119.5c3.441,0,6.441-2.342,7.276-5.681l8.503-34.013l24.92,105.912  c0.798,3.39,3.822,5.782,7.3,5.782c0.016,0,0.031,0,0.047,0c3.498-0.022,6.516-2.458,7.275-5.873L189.517,227H279.5  c3.441,0,6.441-2.342,7.276-5.681l8.5-34.009l24.919,105.908c0.798,3.39,3.822,5.782,7.3,5.782c0.016,0,0.031,0,0.047,0  c3.498-0.022,6.516-2.458,7.275-5.873L349.515,227h82.49C420.091,254.338,401.727,283.004,377.603,311.499z" fill="#fff"/>
</svg>
